C:\Users\israe\Dropbox\PhDWork\ExperimentalData\subject9\145\P9S145W01_filtered35.mot
nRows=6
nColumns=28

name C:\Users\israe\Dropbox\PhDWork\ExperimentalData\subject9\145\P9S145W01_filtered35.mot
datacolumns 28
datarows 6
range 1.1150000000 1.1200000000
endheader
time	ground_force_1_vx	ground_force_1_vy	ground_force_1_vz	ground_force_1_px	ground_force_1_py	ground_force_1_pz	ground_moment_1_mx	ground_moment_1_my	ground_moment_1_mz	ground_force_2_vx	ground_force_2_vy	ground_force_2_vz	ground_force_2_px	ground_force_2_py	ground_force_2_pz	ground_moment_2_mx	ground_moment_2_my	ground_moment_2_mz	ground_force_3_vx	ground_force_3_vy	ground_force_3_vz	ground_force_3_px	ground_force_3_py	ground_force_3_pz	ground_moment_3_mx	ground_moment_3_my	ground_moment_3_mz
        1.1150000000	        0.0000000000	        0.0000000000	       -0.0000000000	        0.1988394961	        0.0000558755	       -0.3004071324	       -0.0000000000	       -0.0000000000	       -0.0000000000	        5.5221332491	      593.7735321690	      147.3675920262	        0.2029003516	       -0.0000795827	        0.4543649445	     -120.8006352749	      -15.5100802132	       47.7796155631	      -58.1938916271	      772.4497711065	     -104.2609848351	        0.2076431971	        0.0000770316	        1.3583900146	      125.0714753632	        1.0612353186	      -35.3241186883	
        1.1160000000	        0.0000000000	        0.0000000000	       -0.0000000000	        0.1988394961	        0.0000558755	       -0.3004071324	       -0.0000000000	       -0.0000000000	       -0.0000000000	        5.9636372076	      580.5511397438	      145.6265315064	        0.2029003516	       -0.0000795827	        0.4543649445	     -118.5052507563	      -15.1206929008	       46.7739470757	      -56.5817397604	      782.5914176288	     -106.0412336105	        0.2076431971	        0.0000770316	        1.3583900146	      126.0850462517	        0.7798612759	      -35.9296653453	
        1.1170000000	        0.0000000000	        0.0000000000	       -0.0000000000	        0.1988394961	        0.0000558755	       -0.3004071324	       -0.0000000000	       -0.0000000000	       -0.0000000000	        6.4104725057	      567.2474409905	      143.7426649075	        0.2029003516	       -0.0000795827	        0.4543649445	     -116.1778035959	      -14.7231733382	       45.7661811299	      -54.7269258444	      791.6173041397	     -108.1633014336	        0.2076431971	        0.0000770316	        1.3583900146	      126.9024665759	        0.4667276479	      -36.4921224993	
        1.1180000000	        0.0000000000	        0.0000000000	       -0.0000000000	        0.1988394961	        0.0000558755	       -0.3004071324	       -0.0000000000	       -0.0000000000	       -0.0000000000	        6.8574137368	      553.8817294572	      141.7065576146	        0.2029003516	       -0.0000795827	        0.4543649445	     -113.8204745675	      -14.3180156113	       44.7560014192	      -52.6264886707	      799.6230057927	     -110.5554586558	        0.2076431971	        0.0000770316	        1.3583900146	      127.5432111899	        0.1234437670	      -37.0166642366	
        1.1190000000	        0.0000000000	        0.0000000000	       -0.0000000000	        0.1988394961	        0.0000558755	       -0.3004071324	       -0.0000000000	       -0.0000000000	       -0.0000000000	        7.2995427341	      540.4739651504	      139.5105046314	        0.2029003516	       -0.0000795827	        0.4543649445	     -111.4355163401	      -13.9062452891	       43.7432717270	      -50.2814045426	      806.7325153101	     -113.1373056807	        0.2076431971	        0.0000770316	        1.3583900146	      128.0304378649	       -0.2476164475	      -37.5097631569	
        1.1200000000	        0.0000000000	        0.0000000000	       -0.0000000000	        0.1988394961	        0.0000558755	       -0.3004071324	       -0.0000000000	       -0.0000000000	       -0.0000000000	        7.7320742398	      527.0422667921	      137.1488560323	        0.2029003516	       -0.0000795827	        0.4543649445	     -109.0251770480	      -13.4892005139	       42.7280649312	      -47.6962211232	      813.0897807330	     -115.8277336313	        0.2076431971	        0.0000770316	        1.3583900146	      128.3894644517	       -0.6436059109	      -37.9786699444	
